<?xml version="1.0" encoding="UTF-8"?>
<svg xmlns="http://www.w3.org/2000/svg" viewBox="0 0 1024 1024">
  <defs>
    <style>
      .cls-1 {
        fill: #fff;
      }
    </style>
  </defs>
  <g id="Layer_2" data-name="Layer 2">
    <polygon class="cls-1" points="869.05 749.81 524.66 960.19 180.27 749.81 180.27 145.19 869.05 145.19 869.05 749.81"/>
  </g>
  <g id="Layer_1" data-name="Layer 1">
    <g>
      <path d="M354.27,570.41l7.04-9.73,23.31-29.94,65.4-21.29,64.53-21.13,26.15,18.04-6.97,17.08,30.29-8.09,86.44-22.62,79.69,2.78,15.97.9,8.49,24.02-10.64,13.43,39.49-12.12c-8.08-3.89-14.47-6.38-18.16-13.25-4.2-7.81-7.32-17.14-3.71-25.5l6.05-13.98,49.5-11.23-4.55-5.48-5.86-18.3c-15.57,1.71-23.57,1.16-31.9,14.67l-18.29-3.45c-3.86-.73-6.37-3.28-9.18-5.81l-29.09-26.19-67.97-18.97-64.58-.19c-7.36-8.19-9.94-15.01-21.82-14.74l-30.23,7.13,7.88-25.59,120.43-21.22,70.84-12.4c10.13-1.77,21.22-2.75,30.85-6.09l67.26-33.99-35.29,37.07-17.48,18.38-30.55,5.19-.04,59.15,14.63,13.27c17.54-8.59,42.22-15.2,60.26-7.96,7.98,6.66,10.54,17.02,13.46,26.68,7.43,7.21,14.17,14.32,19.4,23.57,13.17,23.31,4.71,53.45-18.56,66.56-7.36,4.15-14.81,6.2-22.61,8.72l-20.07,6.48c-5.99,1.93-11.08,2.55-17.42,5.54l8.88,22.56-15.99,6.64-21.99,8.26.06,112.86-167.24,100.32-70.84,42.72-20.99-12.54-116.21-73.5-90.63-57.18.16-58.77.24-6.1-59.68,9.11,8.88-20.65,48.37-9.64,47.88-9.42,26.21,13.49,27.13-4.8c-1.54-15.41,4.04-30.62,19.31-36.68-10.21-3.5-20.15-6.66-30.42-8.35l-15.53,2.28ZM818.4,509.02c7.78-.77,12.98-5.82,15.61-12.56,5.49-14.06,1.23-21.73-9.8-32.22l-9.96,1.98c12.64,17.73,12.6,22.62,4.14,42.81ZM795.06,514.66c8.27,0,14.09-5.74,16.67-12.39,4.94-12.74.12-24.89-11.06-31.9l-15.59,4.2c-11.65,3.14-13.74,20.78-6.6,30.84,3.05,4.3,9.36,9.25,16.58,9.24ZM477.16,559.33l-19.92-24.63,29.2-7.59,31.32-8.65,3.74-4.14c1.85-2.05-2.88-8.37-10.02-10.54l-115.7,37.41-10.03,14.1,11.22,2.5,39.9,12.5,40.29-10.95ZM635.33,604.65c.31,11.9,8.46,21.75,20.26,22.57,6.82.47,12.83-3.57,16.06-7.89,4.24-5.68,4.79-11.32,3.51-18.9l14.69-5.09c4.17-3.87,7.32-8.64,10.77-13.81l56.14-20.34c-.4-3.43-1.3-5.96-2.73-7.99l-82.72,27.7,8.71-27.26c9.25-1.9,18.53-3.33,26.87-7.32,12.97-6.21,23.18-15.84,33.13-25.93l-4.38-12.23-25.48-.59-41.62-.78-12.76-.52-20.17,5.07-126.65,32.95c21.02,3.12,33.92,18.76,31.6,39.95l33.9-7.23.59,32.7-4.76,8.18c-5.37-2-11.52-3.08-16.94-1.13-11.45,4.12-17.11,15.24-15.84,27.49s12.5,21.99,24.74,21.36c8.94-.46,15.58-7.02,18.81-13.16,4.31-8.18,3.14-16.83-.47-24.92l29.66-48.71,7.87-11.21,28.66-6.7-2.87,27.16c-5.72,3.68-8.79,8.84-8.59,16.58ZM522.45,588.45c3-8.3,1.5-16.89-4.49-22.75-2.5-2.45-6.31-4.05-9.65-3.61-2.3.3-5.84,2.65-7.35,5.44-4.96,9.2-.99,21.96,8.23,26.46,5.43,2.65,11.3-.14,13.25-5.55ZM413.23,625.02l85.51-24.66c-11.03-9.05-14.11-20.96-8.73-33.66l-76.34,22.34c-3.4.95-8.28,2.12-10.54,4.34-5.22,5.1-5.38,12.6-3.1,19.3,1.78,5.24,6.18,10.31,13.2,12.33Z"/>
      <path d="M449.82,349.61l-107.62-13.83-123.37-15.53,62.84-10.86c2.52-14.98-1.7-29.68,1.09-45.16l328.38-.03c5.81,0,9.39-1.91,13.98-4.49l105.42-59.27,33.01-18.08,55.12.73-122.25,67-83.02,45.04-97,52.32-3.31-15.78c-10.21-1.92-20.13-.26-29.43,5.11l4.18,16.76-38.04-3.94Z"/>
      <path d="M463.62,477.2c7.53,2.31,14.13.99,21.26-1.32-2.06,9.49-8.71,14.52-17.44,17.4l-114.87,37.94-13.61-12.13-15.69,15.92-84.89,38.25,24.25-24.2,19.66-19.15-.11-19.96.22-51.11-96.69,10.4c-5.13.55-5.18.58-5.45.67l128.88-43.12,73.85-23.3,81.28-25.39,23.03,20.98-41.7,14.18c-8.5,6.22-15.88,12.83-23.63,21.42l18.3-2.86c8.89-1.39,16.37-.83,24.61,3.22,4.59,2.26,11.74,3.39,15.36,7.38,7.39,8.14,13.08,16.55,19.55,25.79l-23.15-1.31c-3.75-.21-5.5-6.42-5.25-9.71.18-2.35,1.48-5.82,3.2-6.54,2.02-.84,5.33-.92,8.29-1.2-7.31-5.39-20.72-5.15-27.38,2.61s-1.77,22.08,8.12,25.12ZM342.16,503.52c4.87,4.07,9.12,8.32,14.53,11.78l94.81-30.11c-14.54-11.43-17.68-27.22-5.47-41.45-6.23-2.06-11.51.45-17.61,2.38l-102.41,32.4,1.11,5.8c1.23,6.39,4.25,10.2,9.16,14.29l5.89,4.91Z"/>
      <path d="M426.8,377.07l-144.54,38.36-.17-37.24-101.82-10.78v-5.33c.77-6.51-1.09-11.65,0-18.13h0l53.43,4.23,136.27,10.69,94.28,8.08-37.45,10.13Z"/>
      <path d="M549.66,347.74c10.17-7.38,22.11-12.08,33.58-17.85l37.95-19.08,53.88-27.04,61.37-30.7,132.59-65.45v11.54l-121.37,66.43-.24,39.28-197.78,42.88Z"/>
      <path d="M599.32,465.72l-18.09-.47-26.1-37.66c-2.22-3.21-1.41-9.3-1.41-13.08,9.51-2.39,18.32-5.35,27.79-6.31,13.91-1.41,26.95-1.88,40.99.37l-1.66,13.59-3.92,44.11-17.61-.54Z"/>
      <path d="M709.84,480.09l-17-.58c-7.11-.24-13.87-4.55-20.56-7.07l-40.92-14.33,3.69-42.61,55.53,20.3,17.95,21.78,1.31,22.52Z"/>
      <path d="M738.2,441.26l-19.4,8.23-15.79-18.67c-2.93-3.46-5.97-5.29-10.26-6.87l-56.9-20.89c10.08-2.03,19.24.64,28.77,3.13l52.18,13.66,21.39,21.42Z"/>
      <polygon points="530.99 411.67 523.33 416.38 520.31 399.61 555.67 390.67 555.05 398.55 530.99 411.67"/>
      <path d="M498.38,391.6c-.55,4.71-6.21,1.52-7.89-.09l-13.58-13,19.46-5.51c1.05,6.2,2.71,12.55,2.01,18.59Z"/>
      <path d="M526.1,383.33c-.47,1.66-1.75,3.73-2.81,4.22s-4.09.5-4.77.28l-4.2-19.16,16.87-3.5-5.1,18.16Z"/>
    </g>
  </g>
</svg>